<svg xmlns="http://www.w3.org/2000/svg" xmlns:xlink="http://www.w3.org/1999/xlink" version="1.1" x="0px" y="0px" viewBox="0 0 100 125" enable-background="new 0 0 100 100" xml:space="preserve"><path d="M91.611,49.984c0-17.192-10.799-32.835-26.872-38.925c-1.29-0.488-2.733,0.161-3.224,1.452  c-0.489,1.291,0.161,2.734,1.452,3.224c14.142,5.357,23.644,19.121,23.644,34.249c0,18.275-13.461,33.465-30.989,36.178l1.594-1.97  c0.868-1.074,0.701-2.648-0.372-3.517c-1.076-0.869-2.649-0.7-3.517,0.372l-5.044,6.236c-0.417,0.396-0.689,0.934-0.756,1.536  c-0.008,0.06-0.015,0.118-0.018,0.179c-0.002,0.032-0.01,0.063-0.01,0.096c0,0.04,0.01,0.077,0.012,0.117  c0.004,0.12,0.016,0.238,0.036,0.356c0.004,0.021,0.008,0.039,0.012,0.059c0.11,0.553,0.396,1.073,0.868,1.455l6.518,5.271  c0.463,0.375,1.019,0.557,1.57,0.557c0.729,0,1.452-0.317,1.945-0.928c0.869-1.073,0.702-2.647-0.371-3.516l-1.688-1.365  C76.317,88.013,91.611,70.752,91.611,49.984z M51.966,12.402c0.081-0.104,0.152-0.215,0.216-0.331c0.02-0.035,0.04-0.07,0.059-0.106  c0.049-0.101,0.088-0.205,0.124-0.313c0.019-0.056,0.037-0.109,0.052-0.166c0.021-0.089,0.037-0.179,0.05-0.271  c0.011-0.079,0.021-0.158,0.023-0.238c0.002-0.035,0.011-0.067,0.011-0.103c0-0.043-0.011-0.083-0.013-0.125  c-0.004-0.095-0.013-0.188-0.028-0.281c-0.011-0.065-0.023-0.129-0.039-0.191c-0.024-0.101-0.055-0.198-0.092-0.296  c-0.019-0.049-0.038-0.098-0.06-0.145c-0.048-0.106-0.104-0.207-0.167-0.307c-0.021-0.032-0.041-0.064-0.063-0.096  c-0.072-0.103-0.152-0.199-0.241-0.292c-0.022-0.023-0.045-0.045-0.068-0.067c-0.053-0.052-0.098-0.108-0.156-0.155l-6.518-5.272  c-1.075-0.871-2.648-0.702-3.516,0.371c-0.869,1.073-0.702,2.647,0.371,3.516l1.656,1.34c-19.9,3.102-35.178,20.354-35.178,41.111  c0,17.313,10.901,32.993,27.126,39.02c0.287,0.106,0.581,0.157,0.87,0.157c1.015,0,1.97-0.623,2.344-1.631  c0.48-1.294-0.179-2.733-1.474-3.214c-14.275-5.303-23.866-19.1-23.866-34.332c0-18.286,13.477-33.483,31.02-36.184l-1.624,2.008  c-0.868,1.074-0.701,2.648,0.372,3.517c0.463,0.374,1.019,0.556,1.57,0.556c0.729,0,1.452-0.317,1.946-0.928l5.271-6.519  C51.953,12.425,51.957,12.412,51.966,12.402z"/><text x="0" y="115" fill="#000000" font-size="5px" font-weight="bold" font-family="'Helvetica Neue', Helvetica, Arial-Unicode, Arial, Sans-serif">Created by Pundimon</text><text x="0" y="120" fill="#000000" font-size="5px" font-weight="bold" font-family="'Helvetica Neue', Helvetica, Arial-Unicode, Arial, Sans-serif">from the Noun Project</text></svg>