<svg xmlns="http://www.w3.org/2000/svg" xmlns:xlink="http://www.w3.org/1999/xlink" version="1.1" x="0px" y="0px" viewBox="0 0 56 70" style="enable-background:new 0 0 56 56;" xml:space="preserve"><path d="M53,11.4814453c0-0.5522461-0.4477539-1-1-1H38.4614258V7.0112305C38.4614258,4.7993164,36.6621094,3,34.4501953,3  H20.5107422C18.2993164,3,16.5,4.7993164,16.5,7.0112305v3.4702148H4c-0.5522461,0-1,0.4477539-1,1v18.2416992  c0,0.480957,0.3422852,0.8935547,0.8149414,0.9829102l0.2067871,0.0389404C4.0175781,30.7819824,4,30.8144531,4,30.8525391  v17.0878906C4,50.7304688,6.0610352,53,8.5947266,53h38.8100586C49.9384766,53,52,50.7304688,52,47.9404297V30.8525391  c0-0.0380859-0.0175781-0.0705566-0.0217285-0.1075439l0.2067871-0.0389404C52.6577148,30.6166992,53,30.2041016,53,29.7231445  V11.4814453z M18.5,7.0112305C18.5,5.9023438,19.4018555,5,20.5107422,5h13.9394531  c1.1088867,0,2.0112305,0.9023438,2.0112305,2.0112305v3.4702148H18.5V7.0112305z M5,12.4814453h12.5h19.9614258H51V28.894043  l-18.8706055,3.5517578c-0.3531494,0.0683594-0.7253418,0.1278076-1.1103516,0.1798096v-4.5054932c0-0.5522461-0.4477539-1-1-1  h-4.0385742c-0.5522461,0-1,0.4477539-1,1v4.5053711c-0.3858032-0.0522461-0.7594604-0.1119385-1.1157227-0.1811523L5,28.894043  V12.4814453z M29.019043,29.1201172v9.4335938h-2.0385742v-9.4335938H29.019043z M50,47.9404297  C50,49.6274414,48.8359375,51,47.4047852,51H8.5947266C7.1640625,51,6,49.6274414,6,47.9404297V31.1171875l17.4892578,3.2915039  c0.4703979,0.0915527,0.9741821,0.1645508,1.4912109,0.2287598v4.9162598c0,0.5522461,0.4477539,1,1,1h4.0385742  c0.5522461,0,1-0.4477539,1-1v-4.9161377c0.5164795-0.0640869,1.019104-0.1368408,1.4858398-0.227417L50,31.1173096V47.9404297z"/><text x="0" y="71" fill="#000000" font-size="5px" font-weight="bold" font-family="'Helvetica Neue', Helvetica, Arial-Unicode, Arial, Sans-serif">Created by rivercon</text><text x="0" y="76" fill="#000000" font-size="5px" font-weight="bold" font-family="'Helvetica Neue', Helvetica, Arial-Unicode, Arial, Sans-serif">from the Noun Project</text></svg>