<svg xmlns:dc="http://purl.org/dc/elements/1.1/" xmlns:cc="http://creativecommons.org/ns#" xmlns:rdf="http://www.w3.org/1999/02/22-rdf-syntax-ns#" xmlns:svg="http://www.w3.org/2000/svg" xmlns="http://www.w3.org/2000/svg" xmlns:sodipodi="http://sodipodi.sourceforge.net/DTD/sodipodi-0.dtd" xmlns:inkscape="http://www.inkscape.org/namespaces/inkscape" version="1.1" x="0px" y="0px" viewBox="0 0 100 125"><g transform="translate(0,-952.36218)"><path style="text-indent:0;text-transform:none;direction:ltr;block-progression:tb;baseline-shift:baseline;color:#000000;enable-background:accumulate;" d="m 85.876252,968.34798 c -0.7632,0.038 -1.5068,0.3816 -2.0313,0.9374 -10.6793,11.1734 -28.0048,30.2419 -39.187503,42.03132 l -14.8437,-11.34372 c -1.2495,-0.9745 -3.2786,-0.7095 -4.2359,0.55322 -0.9574,1.2627 -0.6647,3.288 0.6109,4.228 l 17,12.9999 c 1.1579,0.8744 2.962,0.7324 3.9687,-0.3125 11.176803,-11.6935 29.954503,-32.44342 41.000003,-43.99992 0.8349,-0.8547 1.0803,-2.2323 0.5919,-3.3228 -0.4883,-1.0904 -1.6795,-1.8246 -2.8731,-1.7709 z m -74.875003,9.0312 0,55.99992 c 2e-4,1.5708 1.4292,2.9998 3,3 l 56.000003,0 c 1.5707,-2e-4 2.9998,-1.4292 3,-3 l 0,-27.9999 c 0.022,-1.5849 -1.4149,-3.0427 -3,-3.0427 -1.5851,0 -3.0224,1.4578 -3,3.0427 l 0,24.9999 -50.000003,0 0,-49.99992 43.000003,0 c 1.5849,0.022 3.0427,-1.4149 3.0427,-3 0,-1.5851 -1.4578,-3.0224 -3.0427,-3 l -46.000003,0 c -1.7214,0.049 -2.9671,1.7358 -3,3 z" fill="#000000" fill-opacity="1" stroke="none" marker="none" visibility="visible" display="inline" overflow="visible"/></g><text x="0" y="115" fill="#000000" font-size="5px" font-weight="bold" font-family="'Helvetica Neue', Helvetica, Arial-Unicode, Arial, Sans-serif">Created by Kimmi Studio</text><text x="0" y="120" fill="#000000" font-size="5px" font-weight="bold" font-family="'Helvetica Neue', Helvetica, Arial-Unicode, Arial, Sans-serif">from the Noun Project</text></svg>