<svg xmlns="http://www.w3.org/2000/svg" xmlns:xlink="http://www.w3.org/1999/xlink" version="1.0" x="0px" y="0px" viewBox="0 0 100 125" enable-background="new 0 0 100 100" xml:space="preserve"><g><path fill="#000000" d="M7,83.445c0-4.141,1.027-7.972,3.082-11.491c2.055-3.52,4.841-6.307,8.361-8.361   c3.519-2.054,7.35-3.082,11.49-3.082h40.133c4.141,0,7.971,1.027,11.491,3.082c3.519,2.055,6.307,4.841,8.361,8.361   C91.973,75.473,93,79.304,93,83.445V93h-5.733v-9.555c0-3.122-0.772-5.996-2.317-8.624s-3.631-4.714-6.259-6.259   c-2.628-1.545-5.502-2.317-8.624-2.317H29.933c-3.122,0-5.996,0.772-8.624,2.317c-2.628,1.544-4.714,3.631-6.259,6.259   s-2.317,5.502-2.317,8.624V93H7V83.445z M38.032,50.597c-3.647-2.15-6.546-5.048-8.696-8.695c-2.15-3.647-3.225-7.636-3.225-11.968   c0-4.332,1.075-8.321,3.225-11.968c2.15-3.647,5.048-6.546,8.696-8.696C41.678,7.12,45.668,6.044,50,6.044S58.321,7.12,61.969,9.27   c3.646,2.15,6.545,5.049,8.695,8.696c2.15,3.647,3.225,7.637,3.225,11.968c0,4.332-1.074,8.321-3.225,11.968   c-2.15,3.647-5.049,6.545-8.695,8.695c-3.647,2.15-7.637,3.225-11.969,3.225S41.678,52.748,38.032,50.597z M59.102,45.652   c2.787-1.625,4.993-3.83,6.617-6.617c1.625-2.787,2.437-5.821,2.437-9.102c0-3.28-0.812-6.314-2.437-9.102   c-1.624-2.787-3.83-4.993-6.617-6.617C56.314,12.59,53.28,11.778,50,11.778c-3.281,0-6.314,0.812-9.102,2.437   c-2.788,1.624-4.993,3.83-6.617,6.617c-1.625,2.788-2.437,5.821-2.437,9.102c0,3.281,0.812,6.315,2.437,9.102   c1.624,2.788,3.83,4.993,6.617,6.617c2.787,1.625,5.82,2.437,9.102,2.437C53.28,48.089,56.314,47.277,59.102,45.652z"/></g><g display="none"><rect x="7" y="7" display="inline" fill="#000000" stroke="#FF00FF" stroke-width="0.25" stroke-miterlimit="10" width="86" height="86"/><rect x="7" y="7" display="inline" fill="#000000" stroke="#FF00FF" stroke-width="0.25" stroke-miterlimit="10" width="86" height="86"/></g><text x="0" y="115" fill="#000000" font-size="5px" font-weight="bold" font-family="'Helvetica Neue', Helvetica, Arial-Unicode, Arial, Sans-serif">Created by kloeg architecture</text><text x="0" y="120" fill="#000000" font-size="5px" font-weight="bold" font-family="'Helvetica Neue', Helvetica, Arial-Unicode, Arial, Sans-serif">from the Noun Project</text></svg>